<svg width="107.12mm" height="20.881mm" version="1.1" viewBox="0 0 107.12 20.881" xmlns="http://www.w3.org/2000/svg">
 <g transform="translate(730.72 103.59)">
  <g font-family="'HK Grotesk'" font-weight="500" stroke-width=".8321" style="line-height:1.25" aria-label="Andreas.">
   <g font-size="10.583px" stroke-width=".22016" aria-label="I develop for the web">
    <text transform="matrix(.26458 0 0 .26458 -423.2 -58.286)" font-family="'HK Grotesk'" font-size="40px" font-weight="500" style="line-height:1.25;shape-inside:url(#rect102989);white-space:pre" xml:space="preserve"/>
    <g stroke-width=".16279" aria-label="Andreas">
     <path d="m-715.75-82.971h2.8984l-7.8968-20.614h-2.0703l-7.8968 20.614h2.8984l1.8337-5.1166h8.3996zm-9.3756-7.4532 3.3421-9.346 3.3421 9.346z"/>
     <path d="m-702.53-97.818c-1.9816 0-3.697 0.82813-4.673 2.2478v-1.9816h-2.5435v14.581h2.5435v-6.2997c0-3.6083 1.0647-6.2997 3.9928-6.2997 2.3661 0 3.0463 1.7154 3.0463 4.1406v8.4587h2.5435v-9.0798c0-3.7562-1.7154-5.7673-4.9096-5.7673z"/>
     <path d="m-683.16-103.59v7.8672c-1.0056-1.3309-2.6914-2.0999-4.6139-2.0999-3.904 0-6.3884 2.928-6.3884 7.5419 0 4.3477 2.2182 7.5715 6.3884 7.5715 1.9224 0 3.5787-0.70982 4.6139-2.0703v1.8041h2.5435v-20.614zm-4.1406 18.574c-2.8689 0-4.3181-2.159-4.3181-5.2645 0-3.1942 1.5675-5.2645 4.3181-5.2645 2.8097 0 4.3477 2.159 4.3477 5.2645 0 3.0168-1.4492 5.2645-4.3477 5.2645z"/>
     <path d="m-668.9-97.818c-1.538 0-3.2829 0.68025-4.1998 2.5435v-2.2774h-2.5435v14.581h2.5435v-7.8672c0-3.0168 1.4492-4.5843 3.6674-4.5843 0.65068 0 1.2718 0.14788 1.8929 0.44364l1.2422-2.1295c-0.8577-0.50279-1.6858-0.70982-2.6027-0.70982z"/>
     <path d="m-652.93-90.808c0-3.5491-1.9816-7.0095-6.4476-7.0095-4.4364 0-6.625 3.6083-6.625 7.6306 0 4.0519 2.2182 7.4827 6.8616 7.4827 2.3069 0 4.0815-0.7394 5.7377-2.514l-1.745-1.5675c-1.2422 1.3309-2.4844 1.745-3.9632 1.745-2.6914 0-4.259-1.6858-4.3477-4.466h10.44c0.0592-0.38449 0.0887-0.88728 0.0887-1.3013zm-10.529-0.76898c0.17746-2.1886 1.5675-4.1111 4.0519-4.1111 2.4548 0 3.9336 1.5971 4.0223 3.8449 0 0.1183 0 0.20703 0.0296 0.26618z"/>
     <path d="m-643.94-97.818c-2.5435 0-4.5251 0.97601-6.1518 3.0463l1.8337 1.538c1.1535-1.538 2.5435-2.3365 4.2589-2.3365 2.2182 0 3.4604 1.2422 3.4604 3.49v0.59152h-3.2238c-2.4548 0-3.904 0.23661-4.9983 0.82813-1.183 0.65067-1.8337 1.8337-1.8337 3.3717 0 2.8097 1.9816 4.5843 5.1166 4.5843 2.1886 0 3.9336-0.88728 4.9688-2.4548l0.17746 2.1886h2.3365v-9.1094c0-3.6083-2.2182-5.7377-5.9448-5.7377zm-0.94644 12.984c-1.952 0-3.1646-0.91686-3.1646-2.3365 0-0.7394 0.26619-1.3013 0.7394-1.6858 0.6211-0.47322 1.6267-0.65067 3.8449-0.65067h2.928v0.14788c0 2.6914-1.7746 4.5251-4.3477 4.5251z"/>
     <path d="m-628.98-82.705c2.7802 0 5.3828-1.4788 5.3828-4.5843 0-5.4716-8.163-3.5787-8.163-6.625 0-1.0647 1.0056-1.745 2.6027-1.745 1.7154 0 2.7506 0.8577 3.4012 2.0407l2.0112-1.0943c-1.0352-2.0407-2.9576-3.1055-5.3532-3.1055-2.8689 0-5.1166 1.538-5.1166 4.1702 0 5.2645 8.1038 3.1055 8.1038 6.5067 0 1.2718-1.0647 2.2478-2.9576 2.2478-2.159 0-3.3717-1.3013-3.8449-2.6618l-2.0999 0.94643c0.76897 2.2774 3.1055 3.904 6.0335 3.904z"/>
    </g>
   </g>
   <text transform="matrix(.26458 0 0 .26458 -463.01 -102.95)" font-family="'HK Grotesk'" font-size="40px" style="line-height:1.25;shape-inside:url(#rect95810);white-space:pre" xml:space="preserve"/>
  </g>
 </g>
</svg>
