<svg width="72.496mm" height="9.5356mm" version="1.1" viewBox="0 0 72.496 9.5356" xmlns="http://www.w3.org/2000/svg">
 <g transform="translate(611.13 61.577)">
  <g font-family="'HK Grotesk'" font-size="33.284px" font-weight="600" stroke-width=".8321" style="line-height:1.25" aria-label="Andreas.">
   <g font-size="10.583px" font-weight="500" stroke-width=".22016" aria-label="I develop for the web">
    <text transform="matrix(.26458 0 0 .26458 -423.2 -58.286)" font-family="'HK Grotesk'" font-size="40px" font-weight="500" style="line-height:1.25;shape-inside:url(#rect102989);white-space:pre" xml:space="preserve"/>
    <g stroke-width=".05825" aria-label="I build for the web">
     <path d="m-657.69-121.58h0.94191v-7.3766h-0.94191z"/>
     <path d="m-649.39-126.89c-0.68791 0-1.2912 0.27517-1.651 0.75142v-2.8152h-0.91016v7.3766h0.91016v-0.64558c0.37041 0.48683 0.96308 0.74083 1.651 0.74083 1.4922 0 2.286-1.1536 2.286-2.7093 0-1.651-0.889-2.6988-2.286-2.6988zm-0.16933 4.5826c-1.0372 0-1.5557-0.80433-1.5557-1.8838 0-1.1112 0.55033-1.8838 1.5557-1.8838 0.98425 0 1.5452 0.74083 1.5452 1.8838 0 1.1112-0.51858 1.8838-1.5452 1.8838z"/>
     <path d="m-642.48-126.79v2.2648c0 1.2065-0.34925 2.2437-1.4393 2.2437-0.98425 0-1.0795-0.83608-1.0795-1.5134v-2.9951h-0.91016v3.2173c0 1.2277 0.52917 2.0955 1.7568 2.0955 0.65616 0 1.3017-0.254 1.6722-0.80433v0.70908h0.91016v-5.2176z"/>
     <path d="m-639.84-127.84h1.016v-1.1112h-1.016zm0.0529 6.2653h0.91016v-5.2176h-0.91016z"/>
     <path d="m-636.08-121.48c0.23284 0 0.508-0.0635 0.75142-0.14817l-0.0106-0.75141c-0.14816 0.0423-0.31749 0.0847-0.46566 0.0847-0.30692 0-0.43392-0.1905-0.43392-0.508v-6.1489h-0.91016v6.2018c0 0.85725 0.43392 1.27 1.0689 1.27z"/>
     <path d="m-630.69-128.95v2.8152c-0.35983-0.47625-0.96308-0.75142-1.651-0.75142-1.397 0-2.286 1.0478-2.286 2.6988 0 1.5557 0.79375 2.7093 2.286 2.7093 0.68791 0 1.2806-0.254 1.651-0.74083v0.64558h0.91016v-7.3766zm-1.4817 6.6463c-1.0266 0-1.5452-0.77258-1.5452-1.8838 0-1.143 0.56091-1.8838 1.5452-1.8838 1.0054 0 1.5557 0.77258 1.5557 1.8838 0 1.0795-0.51858 1.8838-1.5557 1.8838z"/>
     <path d="m-624.9-121.58h0.91016v-4.4767h1.4076v-0.74083h-1.4076v-0.77258c0-0.39158 0.16933-0.71966 0.59267-0.71966 0.17991 0 0.35983 0.0635 0.55033 0.15875l0.30691-0.70908c-0.3175-0.13759-0.62441-0.21167-0.95249-0.21167-0.71967 0-1.397 0.33867-1.397 1.524v0.73024h-1.0795v0.74083h1.0689z"/>
     <path d="m-619.69-121.48c1.5346 0 2.5506-1.1959 2.5506-2.7093 0-1.524-1.0266-2.6988-2.5506-2.6988-1.5346 0-2.5294 1.1748-2.5294 2.6988 0 1.524 0.99483 2.7093 2.5294 2.7093zm0-0.80433c-1.0583 0-1.6192-0.83608-1.6192-1.905 0-1.0689 0.55033-1.8944 1.6192-1.8944 1.0689 0 1.6404 0.81492 1.6404 1.8944 0 1.0583-0.5715 1.905-1.6404 1.905z"/>
     <path d="m-613.42-126.89c-0.55033 0-1.1748 0.24342-1.5028 0.91017v-0.81492h-0.91016v5.2176h0.91016v-2.8152c0-1.0795 0.51858-1.6404 1.3123-1.6404 0.23283 0 0.45508 0.0529 0.67733 0.15875l0.4445-0.762c-0.30692-0.17991-0.60325-0.254-0.93133-0.254z"/>
     <path d="m-606.41-126.05v-0.74083h-1.2806v-1.9156l-0.91017 0.67733v1.2382h-0.85724v0.74083h0.85724v3.175c0 0.98425 0.59267 1.397 1.3441 1.397 0.27517 0 0.56092-0.0529 0.84667-0.14817v-0.77258c-0.23284 0.0741-0.4445 0.11642-0.62442 0.11642-0.41275 0-0.65616-0.21167-0.65616-0.68792v-3.0797z"/>
     <path d="m-602.6-126.89c-0.73025 0-1.3335 0.29634-1.6828 0.80433v-2.8681h-0.91016v7.3766h0.91016v-2.2966c0-1.4605 0.49742-2.2119 1.4393-2.2119 0.74083 0 1.0795 0.46567 1.0795 1.4817v3.0268h0.91016v-3.2491c0-1.3441-0.61383-2.0638-1.7462-2.0638z"/>
     <path d="m-594.95-124.38c0-1.27-0.70908-2.5082-2.3072-2.5082-1.5875 0-2.3707 1.2912-2.3707 2.7305 0 1.4499 0.79375 2.6776 2.4553 2.6776 0.82549 0 1.4605-0.26458 2.0532-0.89958l-0.62442-0.56092c-0.4445 0.47625-0.88899 0.62442-1.4182 0.62442-0.96308 0-1.524-0.60325-1.5557-1.5981h3.7359c0.0212-0.13758 0.0317-0.3175 0.0317-0.46566zm-3.7676-0.27517c0.0635-0.78316 0.56091-1.4711 1.4499-1.4711 0.87841 0 1.4076 0.5715 1.4393 1.3758 0 0.0423 0 0.0741 0.0106 0.0952z"/>
     <path d="m-589.95-121.58h0.83608l1.2806-3.9476 1.27 3.9476h0.83608l1.5557-5.2176h-0.97366l-1.0478 3.8312-1.2382-3.8312h-0.81492l-1.2382 3.8312-1.0478-3.8312h-0.97366z"/>
     <path d="m-578.94-124.38c0-1.27-0.70908-2.5082-2.3072-2.5082-1.5875 0-2.3707 1.2912-2.3707 2.7305 0 1.4499 0.79375 2.6776 2.4553 2.6776 0.82549 0 1.4605-0.26458 2.0532-0.89958l-0.62442-0.56092c-0.4445 0.47625-0.889 0.62442-1.4182 0.62442-0.96308 0-1.524-0.60325-1.5558-1.5981h3.7359c0.0212-0.13758 0.0317-0.3175 0.0317-0.46566zm-3.7677-0.27517c0.0635-0.78316 0.56092-1.4711 1.4499-1.4711 0.87841 0 1.4076 0.5715 1.4393 1.3758 0 0.0423 0 0.0741 0.0106 0.0952z"/>
     <path d="m-575.04-126.89c-0.68792 0-1.2912 0.27517-1.651 0.75142v-2.8152h-0.91016v7.3766h0.91016v-0.64558c0.37042 0.48683 0.96308 0.74083 1.651 0.74083 1.4922 0 2.286-1.1536 2.286-2.7093 0-1.651-0.889-2.6988-2.286-2.6988zm-0.16934 4.5826c-1.0372 0-1.5557-0.80433-1.5557-1.8838 0-1.1112 0.55033-1.8838 1.5557-1.8838 0.98425 0 1.5452 0.74083 1.5452 1.8838 0 1.1112-0.51858 1.8838-1.5452 1.8838z"/>
    </g>
   </g>
   <g font-family="'HK Grotesk'" font-size="40px" font-weight="500">
    <text transform="matrix(.26458 0 0 .26458 -463.01 -102.95)" style="line-height:1.25;shape-inside:url(#rect95810);white-space:pre" xml:space="preserve"/>
    <text transform="matrix(.26458 0 0 .26458 -675.29 -62.708)" style="line-height:1.25;shape-inside:url(#rect182082);white-space:pre" xml:space="preserve"/>
    <text transform="matrix(.26458 0 0 .26458 -620.48 -39.018)" style="line-height:1.25;shape-inside:url(#rect189051);white-space:pre" xml:space="preserve"/>
   </g>
   <g stroke-width=".22016" aria-label="I'm a developer">
    <path d="m-611.13-54.2h0.94191v-7.3766h-0.94191z"/>
    <path d="m-608.01-59.111h0.77259v-2.4659h-0.77259z"/>
    <path d="m-599.75-59.513c-0.75142 0-1.3441 0.30692-1.7039 1.016-0.28574-0.73025-0.85724-1.016-1.5346-1.016-0.56092 0-1.0901 0.20108-1.4182 0.74083v-0.64558h-0.88899l0.0106 5.2176h0.91016v-2.3389c0-1.1324 0.17992-2.1696 1.2171-2.1696 0.87842 0 1.0795 0.80433 1.0795 1.5134v2.9951h0.91016v-2.3389c0-1.1324 0.16934-2.1696 1.2382-2.1696 1.0372 0 1.0583 1.0583 1.0583 1.4922v3.0162h0.91016v-3.2808c0-1.1642-0.53974-2.032-1.7886-2.032z"/>
    <path d="m-591.65-59.513c-0.91016 0-1.6192 0.34925-2.2013 1.0901l0.65616 0.55033c0.41275-0.55033 0.91017-0.83608 1.524-0.83608 0.79375 0 1.2382 0.4445 1.2382 1.2488v0.21167h-1.1536c-0.87841 0-1.397 0.08467-1.7886 0.29633-0.42334 0.23283-0.65617 0.65616-0.65617 1.2065 0 1.0054 0.70908 1.6404 1.8309 1.6404 0.78317 0 1.4076-0.3175 1.778-0.87841l0.0635 0.78316h0.83608v-3.2597c0-1.2912-0.79375-2.0532-2.1272-2.0532zm-0.33866 4.6461c-0.6985 0-1.1324-0.32808-1.1324-0.83608 0-0.26458 0.0952-0.46566 0.26458-0.60325 0.22225-0.16933 0.58208-0.23283 1.3758-0.23283h1.0477v0.05292c0 0.96308-0.63499 1.6192-1.5557 1.6192z"/>
    <path d="m-581.58-61.577v2.8152c-0.35984-0.47625-0.96308-0.75141-1.651-0.75141-1.397 0-2.286 1.0477-2.286 2.6987 0 1.5557 0.79375 2.7093 2.286 2.7093 0.68792 0 1.2806-0.254 1.651-0.74083v0.64558h0.91016v-7.3766zm-1.4817 6.6463c-1.0266 0-1.5452-0.77258-1.5452-1.8838 0-1.143 0.56092-1.8838 1.5452-1.8838 1.0054 0 1.5558 0.77258 1.5558 1.8838 0 1.0795-0.51858 1.8838-1.5558 1.8838z"/>
    <path d="m-574.64-57.005c0-1.27-0.70908-2.5082-2.3072-2.5082-1.5875 0-2.3707 1.2912-2.3707 2.7305 0 1.4499 0.79375 2.6776 2.4553 2.6776 0.82549 0 1.4605-0.26458 2.0532-0.89958l-0.62442-0.56092c-0.4445 0.47625-0.889 0.62442-1.4182 0.62442-0.96308 0-1.524-0.60325-1.5558-1.5981h3.7359c0.0212-0.13758 0.0317-0.3175 0.0317-0.46566zm-3.7677-0.27517c0.0635-0.78316 0.56092-1.4711 1.4499-1.4711 0.87841 0 1.4076 0.5715 1.4393 1.3758 0 0.04233 0 0.07408 0.0106 0.09525z"/>
    <path d="m-571.94-54.2h0.762l2.1378-5.2176h-0.99483l-1.5346 4.0428-1.5134-4.0428h-0.98424z"/>
    <path d="m-563.94-57.005c0-1.27-0.70908-2.5082-2.3072-2.5082-1.5875 0-2.3706 1.2912-2.3706 2.7305 0 1.4499 0.79374 2.6776 2.4553 2.6776 0.8255 0 1.4605-0.26458 2.0532-0.89958l-0.62441-0.56092c-0.4445 0.47625-0.889 0.62442-1.4182 0.62442-0.96308 0-1.524-0.60325-1.5557-1.5981h3.7359c0.0212-0.13758 0.0318-0.3175 0.0318-0.46566zm-3.7676-0.27517c0.0635-0.78316 0.56091-1.4711 1.4499-1.4711 0.87841 0 1.4076 0.5715 1.4393 1.3758 0 0.04233 0 0.07408 0.0106 0.09525z"/>
    <path d="m-561.58-54.105c0.23283 0 0.50799-0.0635 0.75141-0.14817l-0.0106-0.75142c-0.14817 0.04233-0.3175 0.08467-0.46567 0.08467-0.30691 0-0.43391-0.1905-0.43391-0.508v-6.1489h-0.91017v6.2018c0 0.85725 0.43392 1.27 1.0689 1.27z"/>
    <path d="m-557.64-54.105c1.5346 0 2.5506-1.1959 2.5506-2.7093 0-1.524-1.0266-2.6987-2.5506-2.6987-1.5346 0-2.5294 1.1747-2.5294 2.6987s0.99483 2.7093 2.5294 2.7093zm0-0.80433c-1.0583 0-1.6192-0.83608-1.6192-1.905s0.55033-1.8944 1.6192-1.8944c1.0689 0 1.6404 0.81491 1.6404 1.8944 0 1.0583-0.5715 1.905-1.6404 1.905z"/>
    <path d="m-551.22-59.513c-0.67733 0-1.27 0.24342-1.651 0.74083v-0.64558h-0.91017v7.3766h0.91017v-2.8152c0.34925 0.46567 0.95249 0.75142 1.651 0.75142 1.4499 0 2.286-1.1007 2.286-2.7093s-0.84667-2.6987-2.286-2.6987zm-0.16933 4.6037c-1.0372 0-1.5558-0.81491-1.5558-1.905 0-1.1324 0.55034-1.905 1.5558-1.905 0.98425 0 1.5452 0.74083 1.5452 1.905 0 1.1324-0.52916 1.905-1.5452 1.905z"/>
    <path d="m-543.31-57.005c0-1.27-0.70908-2.5082-2.3072-2.5082-1.5875 0-2.3707 1.2912-2.3707 2.7305 0 1.4499 0.79375 2.6776 2.4553 2.6776 0.82549 0 1.4605-0.26458 2.0532-0.89958l-0.62442-0.56092c-0.4445 0.47625-0.889 0.62442-1.4182 0.62442-0.96308 0-1.524-0.60325-1.5558-1.5981h3.7359c0.0212-0.13758 0.0317-0.3175 0.0317-0.46566zm-3.7677-0.27517c0.0635-0.78316 0.56092-1.4711 1.4499-1.4711 0.87841 0 1.4076 0.5715 1.4393 1.3758 0 0.04233 0 0.07408 0.0106 0.09525z"/>
    <path d="m-539.57-59.513c-0.55033 0-1.1747 0.24342-1.5028 0.91016v-0.81491h-0.91016v5.2176h0.91016v-2.8152c0-1.0795 0.51859-1.6404 1.3123-1.6404 0.23284 0 0.45509 0.05292 0.67733 0.15875l0.4445-0.762c-0.30691-0.17992-0.60324-0.254-0.93133-0.254z"/>
   </g>
  </g>
 </g>
</svg>
