<svg width="61.161mm" height="8.9958mm" version="1.1" viewBox="0 0 61.161 8.9958" xmlns="http://www.w3.org/2000/svg">
 <g transform="translate(632.98 73.605)">
  <g font-family="'HK Grotesk'" font-weight="500" stroke-width=".8321" style="line-height:1.25" aria-label="Andreas.">
   <g font-size="10.583px" stroke-width=".22016" aria-label="I develop for the web">
    <text transform="matrix(.26458 0 0 .26458 -423.2 -58.286)" font-family="'HK Grotesk'" font-size="40px" font-weight="500" style="line-height:1.25;shape-inside:url(#rect102989);white-space:pre" xml:space="preserve"/>
    <g stroke-width=".05825" aria-label="Hello, it's me">
     <path d="m-632.98-66.229h0.94191v-3.3337h3.6301v3.3337h0.9525v-7.3766h-0.9525v3.1644h-3.6301v-3.1644h-0.94191z"/>
     <path d="m-621.21-69.033c0-1.27-0.70908-2.5082-2.3072-2.5082-1.5875 0-2.3706 1.2912-2.3706 2.7305 0 1.4499 0.79374 2.6776 2.4553 2.6776 0.8255 0 1.4605-0.26458 2.0532-0.89958l-0.62441-0.56092c-0.4445 0.47625-0.889 0.62442-1.4182 0.62442-0.96308 0-1.524-0.60325-1.5557-1.5981h3.7359c0.0212-0.13758 0.0317-0.3175 0.0317-0.46566zm-3.7676-0.27517c0.0635-0.78316 0.56091-1.4711 1.4499-1.4711 0.87842 0 1.4076 0.5715 1.4393 1.3758 0 0.04233 0 0.07408 0.0106 0.09525z"/>
     <path d="m-618.85-66.133c0.23283 0 0.508-0.0635 0.75141-0.14817l-0.0106-0.75142c-0.14817 0.04233-0.3175 0.08467-0.46567 0.08467-0.30691 0-0.43391-0.1905-0.43391-0.508v-6.1489h-0.91016v6.2018c0 0.85725 0.43391 1.27 1.0689 1.27z"/>
     <path d="m-615.96-66.133c0.23283 0 0.508-0.0635 0.75141-0.14817l-0.0106-0.75142c-0.14817 0.04233-0.3175 0.08467-0.46567 0.08467-0.30691 0-0.43391-0.1905-0.43391-0.508v-6.1489h-0.91017v6.2018c0 0.85725 0.43392 1.27 1.0689 1.27z"/>
     <path d="m-612.02-66.133c1.5346 0 2.5506-1.1959 2.5506-2.7093 0-1.524-1.0266-2.6987-2.5506-2.6987-1.5346 0-2.5294 1.1747-2.5294 2.6987s0.99483 2.7093 2.5294 2.7093zm0-0.80433c-1.0583 0-1.6192-0.83608-1.6192-1.905s0.55033-1.8944 1.6192-1.8944 1.6404 0.81491 1.6404 1.8944c0 1.0583-0.5715 1.905-1.6404 1.905z"/>
     <path d="m-608.25-64.609h0.61383l1.3758-2.9845h-1.1218z"/>
     <path d="m-602.01-72.494h1.016v-1.1112h-1.016zm0.0529 6.2653h0.91017v-5.2176h-0.91017z"/>
     <path d="m-596.9-70.705v-0.74083h-1.2806v-1.9156l-0.91017 0.67733v1.2382h-0.85724v0.74083h0.85724v3.175c0 0.98425 0.59267 1.397 1.3441 1.397 0.27517 0 0.56092-0.05292 0.84667-0.14817v-0.77258c-0.23284 0.07408-0.4445 0.11642-0.62442 0.11642-0.41275 0-0.65616-0.21167-0.65616-0.68792v-3.0797z"/>
     <path d="m-595.42-71.139h0.77258v-2.4659h-0.77258z"/>
     <path d="m-591.1-66.133c0.99483 0 1.9262-0.52916 1.9262-1.6404 0-1.9579-2.921-1.2806-2.921-2.3707 0-0.381 0.35983-0.62442 0.93133-0.62442 0.61383 0 0.98424 0.30692 1.2171 0.73025l0.71966-0.39158c-0.37041-0.73025-1.0583-1.1112-1.9156-1.1112-1.0266 0-1.8309 0.55033-1.8309 1.4922 0 1.8838 2.8998 1.1112 2.8998 2.3283 0 0.45508-0.381 0.80433-1.0583 0.80433-0.77258 0-1.2065-0.46567-1.3758-0.9525l-0.75142 0.33866c0.27517 0.81491 1.1112 1.397 2.159 1.397z"/>
     <path d="m-579.51-71.542c-0.75142 0-1.3441 0.30692-1.7039 1.016-0.28574-0.73025-0.85724-1.016-1.5346-1.016-0.56092 0-1.0901 0.20108-1.4182 0.74083v-0.64558h-0.88899l0.0106 5.2176h0.91016v-2.3389c0-1.1324 0.17992-2.1696 1.2171-2.1696 0.87842 0 1.0795 0.80433 1.0795 1.5134v2.9951h0.91016v-2.3389c0-1.1324 0.16934-2.1696 1.2382-2.1696 1.0372 0 1.0583 1.0583 1.0583 1.4922v3.0162h0.91016v-3.2808c0-1.1642-0.53974-2.032-1.7886-2.032z"/>
     <path d="m-571.82-69.033c0-1.27-0.70908-2.5082-2.3072-2.5082-1.5875 0-2.3707 1.2912-2.3707 2.7305 0 1.4499 0.79375 2.6776 2.4553 2.6776 0.8255 0 1.4605-0.26458 2.0532-0.89958l-0.62441-0.56092c-0.4445 0.47625-0.889 0.62442-1.4182 0.62442-0.96308 0-1.524-0.60325-1.5557-1.5981h3.7359c0.0212-0.13758 0.0317-0.3175 0.0317-0.46566zm-3.7676-0.27517c0.0635-0.78316 0.56091-1.4711 1.4499-1.4711 0.87841 0 1.4076 0.5715 1.4393 1.3758 0 0.04233 0 0.07408 0.0106 0.09525z"/>
    </g>
   </g>
   <text transform="matrix(.26458 0 0 .26458 -463.01 -102.95)" font-family="'HK Grotesk'" font-size="40px" style="line-height:1.25;shape-inside:url(#rect95810);white-space:pre" xml:space="preserve"/>
  </g>
 </g>
</svg>
